<svg width="54" height="53" viewBox="0 0 54 53" fill="none" xmlns="http://www.w3.org/2000/svg">
<ellipse cx="27" cy="26.1562" rx="20.25" ry="19.6172" fill="white"/>
<path fill-rule="evenodd" clip-rule="evenodd" d="M27 4.9043C14.8843 4.9043 5.0625 14.4191 5.0625 26.1562C5.0625 37.8934 14.8843 47.4082 27 47.4082C39.1157 47.4082 48.9375 37.8934 48.9375 26.1562C48.9375 14.4191 39.1157 4.9043 27 4.9043ZM28.6875 19.6172C28.6875 18.7143 27.932 17.9824 27 17.9824C26.068 17.9824 25.3125 18.7143 25.3125 19.6172V24.5215H20.25C19.318 24.5215 18.5625 25.2534 18.5625 26.1562C18.5625 27.0591 19.318 27.791 20.25 27.791H25.3125V32.6953C25.3125 33.5982 26.068 34.3301 27 34.3301C27.932 34.3301 28.6875 33.5982 28.6875 32.6953V27.791H33.75C34.682 27.791 35.4375 27.0591 35.4375 26.1562C35.4375 25.2534 34.682 24.5215 33.75 24.5215H28.6875V19.6172Z" fill="#5F4F7F"/>
</svg>
